# File created by Blade
# Date/Time:  Wed Apr 08 14:10:35 2015
# Frame Rate: 120.000 fps
#------------------------------------------------------
:FULLY-SPECIFIED
:DEGREES
212
root 1.759977 32.963670 -19.408497 10.204679 3.942586 -7.541325
Spine -6.650724 -6.638166 4.759866
Head 17.257464 -6.486455 2.930556
LeftShoulder -13.201007 46.360923 7.851092
LeftArm 57.715511 21.116032 -66.769179
LeftForeArm -4.849106 -0.000000 12.879602
LeftHand 4.968922 -0.000000 -12.111713
LeftHandThumb1 -26.253704 0.000000 33.147579
RightShoulder -2.289340 -8.854807 -12.768254
RightArm 18.926436 -23.407376 85.609026
RightForeArm 2.572335 -0.000000 14.682830
RightHand 1.923650 -0.000000 11.858545
RightHandThumb1 -24.326973 -0.000000 -32.862282
LeftUpLeg -10.672652 -1.527643 2.955489
LeftLeg 5.099192 -0.000000 -0.000000
LeftFoot -10.403000 8.890101 -16.706336
LeftToeBase -5.098320 -0.000000 0.000000
RightUpLeg -13.329071 8.344680 5.413856
RightLeg 1.424396 -0.000000 -0.000000
RightFoot -1.169053 -20.882663 7.299028
RightToeBase -2.827093 -0.000000 0.000000
213
root 1.764271 32.969206 -19.401949 10.207485 3.947088 -7.671416
Spine -6.683870 -6.643124 4.896980
Head 17.193518 -6.470999 2.916358
LeftShoulder -13.192662 46.380848 7.843711
LeftArm 57.681646 21.223743 -66.700081
LeftForeArm -4.807199 -0.000000 12.807691
LeftHand 4.935628 -0.000000 -12.188457
LeftHandThumb1 -26.253704 0.000000 33.147579
RightShoulder -2.273599 -8.884769 -12.807416
RightArm 18.919799 -23.524899 85.634940
RightForeArm 2.411967 0.000000 14.681531
RightHand 1.920991 -0.000000 11.887040
RightHandThumb1 -24.326973 -0.000000 -32.862282
LeftUpLeg -10.747252 -1.532399 3.083903
LeftLeg 5.268211 -0.000000 -0.000000
LeftFoot -10.484767 8.834361 -16.700907
LeftToeBase -5.027694 -0.000000 0.000000
RightUpLeg -13.520947 8.529613 5.454526
RightLeg 1.282432 -0.000000 -0.000000
RightFoot -0.918761 -20.682984 7.341203
RightToeBase -2.915562 -0.000000 0.000000
214
root 1.768366 32.973663 -19.395632 10.230448 3.956399 -7.784007
Spine -6.730777 -6.638424 5.007863
Head 17.113534 -6.477994 2.939928
LeftShoulder -13.180843 46.385764 7.851540
LeftArm 57.654810 21.342210 -66.609414
LeftForeArm -4.827887 0.000000 12.740461
LeftHand 4.883752 -0.000000 -12.250589
LeftHandThumb1 -26.253704 0.000000 33.147579
RightShoulder -2.284249 -8.889260 -12.831701
RightArm 18.892458 -23.626913 85.664664
RightForeArm 2.446894 -0.000000 14.654913
RightHand 1.831989 -0.000000 11.469998
RightHandThumb1 -24.326973 -0.000000 -32.862282
LeftUpLeg -10.861527 -1.488014 3.185940
LeftLeg 5.483540 -0.000000 -0.000000
LeftFoot -10.532173 8.714253 -16.641278
LeftToeBase -5.115119 -0.000000 0.000000
RightUpLeg -13.676850 8.817165 5.451541
RightLeg 0.928056 -0.000000 -0.000000
RightFoot -0.579271 -20.585147 7.245613
RightToeBase -2.826109 -0.000000 0.000000
215
root 1.771667 32.977072 -19.389561 10.253777 3.940749 -7.899434
Spine -6.775261 -6.632947 5.119101
Head 17.040952 -6.458327 2.955771
LeftShoulder -13.183482 46.394232 7.854998
LeftArm 57.596451 21.405577 -66.596316
LeftForeArm -4.781103 -0.000000 12.670087
LeftHand 4.788573 0.000000 -12.290888
LeftHandThumb1 -26.253704 0.000000 33.147579
RightShoulder -2.258892 -8.878945 -12.878405
RightArm 18.819781 -23.677129 85.743550
RightForeArm 2.248864 -0.000000 14.675314
RightHand 1.908402 -0.000000 11.926712
RightHandThumb1 -24.326973 -0.000000 -32.862282
LeftUpLeg -10.981814 -1.389073 3.287124
LeftLeg 5.717002 -0.000000 -0.000000
LeftFoot -10.681800 8.581684 -16.668252
LeftToeBase -4.802952 -0.000000 0.000000
RightUpLeg -13.857929 9.081422 5.449149
RightLeg 0.562112 -0.000000 -0.000000
RightFoot -0.271009 -20.363832 7.217962
RightToeBase -2.792965 -0.000000 0.000000
216
root 1.769869 32.980765 -19.382263 10.262733 3.937822 -8.030505
Spine -6.801943 -6.642925 5.232112
Head 16.961477 -6.427716 3.000197
LeftShoulder -13.212387 46.421385 7.834881
LeftArm 57.591524 21.447436 -66.537491
LeftForeArm -4.748884 0.000000 12.550337
LeftHand 4.809368 -0.000000 -12.403986
LeftHandThumb1 -26.253704 0.000000 33.147579
RightShoulder -2.235003 -8.860784 -12.893774
RightArm 18.755024 -23.726973 85.803517
RightForeArm 2.119769 -0.000000 14.677457
RightHand 1.947172 0.000000 11.962372
RightHandThumb1 -24.326973 -0.000000 -32.862282
LeftUpLeg -11.085205 -1.271461 3.418167
LeftLeg 5.935740 -0.000000 -0.000000
LeftFoot -10.954648 8.359907 -16.987485
LeftToeBase -4.019273 -0.000000 0.000000
RightUpLeg -14.127257 9.260189 5.491466
RightLeg 0.347283 -0.000000 -0.000000
RightFoot -0.002987 -20.058444 7.129192
RightToeBase -3.228190 -0.000000 0.000000
217
root 1.769109 32.985249 -19.377455 10.309282 3.890210 -8.159402
Spine -6.861972 -6.599117 5.339451
Head 16.888401 -6.397581 3.034445
LeftShoulder -13.211277 46.439278 7.830903
LeftArm 57.552760 21.453846 -66.536967
LeftForeArm -4.679291 -0.000000 12.442274
LeftHand 4.839003 -0.000000 -12.548296
LeftHandThumb1 -26.253704 0.000000 33.147579
RightShoulder -2.215307 -8.853915 -12.907890
RightArm 18.710426 -23.772813 85.846744
RightForeArm 2.080397 -0.000000 14.658339
RightHand 1.976537 -0.000000 11.853283
RightHandThumb1 -24.326973 -0.000000 -32.862282
LeftUpLeg -11.195325 -1.173312 3.547761
LeftLeg 6.101382 -0.000000 -0.000000
LeftFoot -11.143853 8.208561 -17.253639
LeftToeBase -3.543434 -0.000000 0.000000
RightUpLeg -14.458744 9.384474 5.535303
RightLeg 0.113882 -0.000000 -0.000000
RightFoot 0.308817 -19.624909 6.899391
RightToeBase -3.237959 -0.000000 0.000000
218
root 1.768777 32.988720 -19.377343 10.370801 3.816035 -8.275474
Spine -6.914206 -6.539619 5.425225
Head 16.782090 -6.360935 3.075642
LeftShoulder -13.207578 46.440003 7.847998
LeftArm 57.509734 21.455456 -66.555412
LeftForeArm -4.603847 -0.000000 12.338578
LeftHand 4.778906 0.000000 -12.505828
LeftHandThumb1 -26.253704 0.000000 33.147579
RightShoulder -2.176833 -8.825619 -12.915883
RightArm 18.663489 -23.775975 85.896183
RightForeArm 2.191690 -0.000000 14.626481
RightHand 1.905023 -0.000000 11.388462
RightHandThumb1 -24.326973 -0.000000 -32.862282
LeftUpLeg -11.338945 -0.983322 3.639523
LeftLeg 6.305149 -0.000000 -0.000000
LeftFoot -11.033512 8.126250 -16.840208
LeftToeBase -4.254642 -0.000000 0.000000
RightUpLeg -14.860793 9.463023 5.560238
RightLeg -0.109039 -0.000000 0.000000
RightFoot 0.695654 -19.169948 6.727028
RightToeBase -3.402711 -0.000000 0.000000
219
root 1.769900 32.991549 -19.377764 10.419426 3.712904 -8.370396
Spine -6.936268 -6.476358 5.484987
Head 16.658369 -6.310607 3.114010
LeftShoulder -13.204734 46.392993 7.872253
LeftArm 57.444919 21.484864 -66.558131
LeftForeArm -4.676643 0.000000 12.197907
LeftHand 4.761331 -0.000000 -12.340569
LeftHandThumb1 -26.253704 0.000000 33.147579
RightShoulder -2.138806 -8.789156 -12.931350
RightArm 18.631254 -23.799569 85.938892
RightForeArm 2.238907 -0.000000 14.598375
RightHand 1.941441 -0.000000 11.282727
RightHandThumb1 -24.326973 -0.000000 -32.862282
LeftUpLeg -11.472193 -0.731167 3.690933
LeftLeg 6.516508 -0.000000 -0.000000
LeftFoot -10.940055 7.941771 -16.493610
LeftToeBase -4.978421 -0.000000 0.000000
RightUpLeg -15.273703 9.580589 5.553699
RightLeg -0.364669 -0.000000 0.000000
RightFoot 1.218894 -18.862345 6.421831
RightToeBase -3.580144 -0.000000 0.000000
220
root 1.772054 32.995951 -19.382309 10.496043 3.571457 -8.456100
Spine -6.970670 -6.347806 5.522695
Head 16.527950 -6.287270 3.168694
LeftShoulder -13.139759 46.320796 7.939951
LeftArm 57.356041 21.476834 -66.604059
LeftForeArm -4.745947 -0.000000 12.039359
LeftHand 4.812263 -0.000000 -12.433620
LeftHandThumb1 -26.253704 0.000000 33.147579
RightShoulder -2.119898 -8.741774 -12.933457
RightArm 18.586126 -23.777539 85.990937
RightForeArm 2.240854 -0.000000 14.563204
RightHand 2.030661 0.000000 11.270614
RightHandThumb1 -24.326973 -0.000000 -32.862282
LeftUpLeg -11.611102 -0.563781 3.751492
LeftLeg 6.671075 -0.000000 -0.000000
LeftFoot -10.994025 7.832888 -16.514855
LeftToeBase -5.001307 -0.000000 0.000000
RightUpLeg -15.791308 9.687745 5.521983
RightLeg -0.544588 -0.000000 0.000000
RightFoot 1.912963 -18.578811 6.049641
RightToeBase -3.998745 -0.000000 0.000000
